<svg width="189" height="48" viewBox="0 0 189 48" fill="none" xmlns="http://www.w3.org/2000/svg">
<g clip-path="url(#clip0_135_2676)">
<path d="M78.3757 29.2153C78.3757 30.3262 78.2216 31.3344 77.9182 32.2353C77.6102 33.1362 77.1901 33.9343 76.6486 34.6252C76.1072 35.316 75.4677 35.9135 74.7162 36.4129C73.9693 36.9123 73.1432 37.3231 72.2423 37.6452C71.3414 37.9673 70.3799 38.2053 69.3576 38.3593C68.3354 38.5134 67.1965 38.5881 65.9408 38.5881H57.637C57.1048 38.5881 56.6614 38.4294 56.2973 38.1166C55.9332 37.8039 55.7559 37.2904 55.7559 36.5856V9.34474C55.7559 8.63525 55.9379 8.12646 56.2973 7.81373C56.6614 7.50099 57.1048 7.34229 57.637 7.34229H65.4834C67.3972 7.34229 69.0215 7.50099 70.3472 7.82306C71.6775 8.14513 72.7931 8.63058 73.7033 9.28406C74.6135 9.93754 75.309 10.7591 75.7898 11.758C76.2705 12.7569 76.5133 13.9331 76.5133 15.2821C76.5133 16.0383 76.4152 16.7524 76.2239 17.4199C76.0325 18.0874 75.7477 18.6942 75.379 19.245C75.0102 19.7911 74.5528 20.2766 74.016 20.692C73.4746 21.1121 72.8584 21.4482 72.1676 21.7049C73.0545 21.8683 73.8713 22.1483 74.6182 22.5497C75.365 22.9512 76.0185 23.4693 76.5739 24.1088C77.1294 24.7436 77.5682 25.4904 77.8902 26.3399C78.2123 27.1941 78.371 28.151 78.371 29.2153H78.3757ZM70.1651 16.0569C70.1651 15.4315 70.0671 14.8667 69.8757 14.3672C69.6844 13.8678 69.395 13.4523 69.0075 13.1256C68.6201 12.7942 68.1347 12.5421 67.5465 12.3648C66.9584 12.1874 66.1742 12.0987 65.194 12.0987H61.9826V20.2112H65.5301C66.4496 20.2112 67.1778 20.1039 67.7286 19.8845C68.2747 19.6698 68.7321 19.371 69.0916 18.9929C69.4556 18.6149 69.7217 18.1714 69.8991 17.6673C70.0765 17.1585 70.1651 16.6264 70.1651 16.0616V16.0569ZM71.7848 29.4346C71.7848 28.7111 71.6635 28.0623 71.4208 27.4929C71.178 26.9234 70.8233 26.4426 70.3565 26.0552C69.8897 25.6678 69.2923 25.3691 68.5688 25.1637C67.8453 24.9583 66.9024 24.8509 65.7448 24.8509H61.9779V33.7383H66.5663C67.4532 33.7383 68.1954 33.6449 68.8022 33.4629C69.4043 33.2762 69.9271 33.0055 70.3705 32.6414C70.814 32.2773 71.1594 31.8292 71.4068 31.2877C71.6541 30.7463 71.7802 30.1348 71.7802 29.4393L71.7848 29.4346Z" fill="black"/>
<path d="M103.535 37.7619C103.535 37.9206 103.493 38.0653 103.414 38.1867C103.334 38.308 103.194 38.4061 102.989 38.4901C102.788 38.5694 102.522 38.6301 102.191 38.6721C101.859 38.7141 101.444 38.7328 100.949 38.7328C100.417 38.7328 99.9874 38.7141 99.656 38.6721C99.3246 38.6301 99.0632 38.5741 98.8719 38.4901C98.6805 38.4107 98.5405 38.308 98.4611 38.1867C98.3817 38.0653 98.3397 37.9253 98.3397 37.7619V35.274C97.1495 36.5623 95.9359 37.5285 94.7036 38.1727C93.4713 38.8168 92.197 39.1389 90.876 39.1389C89.3964 39.1389 88.1501 38.8962 87.1465 38.4154C86.1383 37.9346 85.3261 37.2718 84.71 36.4363C84.0892 35.6007 83.6457 34.6299 83.3797 33.5283C83.1136 32.4267 82.9829 31.0544 82.9829 29.4113V16.2297C82.9829 16.071 83.0249 15.9263 83.1136 15.8049C83.2023 15.6836 83.361 15.5855 83.5944 15.5015C83.8278 15.4222 84.1405 15.3615 84.5373 15.3195C84.9294 15.2821 85.4195 15.2588 85.9983 15.2588C86.5771 15.2588 87.0858 15.2775 87.4733 15.3195C87.8607 15.3615 88.1688 15.4222 88.4021 15.5015C88.6355 15.5809 88.7989 15.6836 88.8969 15.8049C88.9949 15.9263 89.0416 16.0663 89.0416 16.2297V28.3984C89.0416 29.528 89.1163 30.3869 89.261 30.9844C89.4057 31.5818 89.6251 32.0906 89.9238 32.5201C90.2226 32.9448 90.6006 33.2762 91.0581 33.5096C91.5155 33.743 92.0523 33.8597 92.6638 33.8597C93.4386 33.8597 94.2135 33.5796 94.993 33.0148C95.7725 32.45 96.608 31.6332 97.4902 30.5503V16.2343C97.4902 16.0756 97.5322 15.9309 97.6209 15.8096C97.7096 15.6882 97.8683 15.5902 98.1017 15.5062C98.3351 15.4268 98.6431 15.3661 99.0306 15.3241C99.418 15.2868 99.9081 15.2635 100.506 15.2635C101.103 15.2635 101.593 15.2821 101.981 15.3241C102.368 15.3661 102.671 15.4268 102.9 15.5062C103.124 15.5855 103.288 15.6882 103.381 15.8096C103.479 15.9309 103.526 16.071 103.526 16.2343V37.7712L103.535 37.7619Z" fill="black"/>
<path d="M123.476 18.2276C123.476 18.8064 123.461 19.2825 123.429 19.6513C123.396 20.02 123.349 20.3094 123.284 20.5195C123.219 20.7295 123.135 20.8742 123.032 20.9536C122.925 21.0329 122.794 21.0749 122.635 21.0749C122.505 21.0749 122.36 21.0469 122.201 20.9909C122.038 20.9349 121.86 20.8742 121.66 20.8089C121.459 20.7435 121.235 20.6828 120.997 20.6268C120.754 20.5708 120.488 20.5428 120.199 20.5428C119.863 20.5428 119.522 20.6128 119.186 20.7482C118.85 20.8835 118.5 21.0983 118.136 21.3877C117.772 21.6771 117.393 22.0645 117.001 22.5453C116.605 23.0307 116.185 23.6235 115.732 24.333V37.7574C115.732 37.9161 115.685 38.0608 115.587 38.1822C115.489 38.3035 115.326 38.4015 115.092 38.4856C114.859 38.5649 114.551 38.6256 114.163 38.6676C113.776 38.7096 113.286 38.7283 112.688 38.7283C112.091 38.7283 111.601 38.7096 111.213 38.6676C110.826 38.6256 110.518 38.5696 110.285 38.4856C110.051 38.4062 109.888 38.3035 109.79 38.1822C109.692 38.0608 109.645 37.9208 109.645 37.7574V16.2205C109.645 16.0618 109.687 15.9171 109.766 15.7957C109.846 15.6744 109.99 15.5763 110.2 15.4923C110.411 15.4083 110.681 15.3523 111.008 15.3103C111.339 15.2729 111.75 15.2496 112.25 15.2496C112.749 15.2496 113.192 15.2683 113.529 15.3103C113.865 15.3523 114.126 15.413 114.313 15.4923C114.499 15.5717 114.63 15.6744 114.71 15.7957C114.789 15.9171 114.831 16.0571 114.831 16.2205V18.8998C115.396 18.0969 115.923 17.4294 116.423 16.9066C116.922 16.3839 117.398 15.9684 117.846 15.665C118.299 15.3616 118.747 15.1469 119.2 15.0255C119.648 14.9042 120.101 14.8435 120.554 14.8435C120.764 14.8435 120.988 14.8575 121.23 14.8808C121.473 14.9042 121.72 14.9462 121.977 15.0022C122.234 15.0582 122.458 15.1236 122.654 15.1936C122.845 15.2636 122.985 15.343 123.074 15.4223C123.163 15.5017 123.228 15.5903 123.265 15.6884C123.307 15.7864 123.34 15.9171 123.373 16.0851C123.405 16.2532 123.429 16.5099 123.443 16.846C123.457 17.182 123.466 17.6441 123.466 18.2229L123.476 18.2276Z" fill="black"/>
<path d="M148.396 26.7789C148.396 28.6133 148.154 30.289 147.673 31.8014C147.192 33.3137 146.459 34.6207 145.474 35.7129C144.494 36.8098 143.262 37.6547 141.782 38.2475C140.303 38.845 138.571 39.139 136.592 39.139C134.613 39.139 133.012 38.873 131.593 38.3409C130.174 37.8087 129.002 37.0386 128.068 36.021C127.135 35.0081 126.444 33.7618 125.991 32.2775C125.539 30.7978 125.314 29.1081 125.314 27.2083C125.314 25.3086 125.562 23.6935 126.052 22.1718C126.542 20.6502 127.28 19.3479 128.26 18.2603C129.24 17.1727 130.468 16.3325 131.943 15.735C133.418 15.1376 135.14 14.8435 137.124 14.8435C139.108 14.8435 140.727 15.1049 142.146 15.6277C143.561 16.1505 144.732 16.9206 145.661 17.9335C146.585 18.9464 147.276 20.1974 147.724 21.6771C148.177 23.1567 148.401 24.8558 148.401 26.7742L148.396 26.7789ZM142.142 27.0216C142.142 25.9574 142.058 24.9818 141.89 24.0903C141.722 23.1987 141.432 22.4192 141.031 21.7611C140.629 21.1029 140.092 20.5848 139.425 20.2161C138.758 19.8473 137.917 19.6606 136.9 19.6606C135.999 19.6606 135.21 19.824 134.533 20.1554C133.856 20.4868 133.301 20.9676 132.867 21.6024C132.433 22.2372 132.106 23.0027 131.891 23.8942C131.677 24.7858 131.565 25.808 131.565 26.9469C131.565 28.0112 131.653 28.9867 131.831 29.8829C132.008 30.7745 132.293 31.554 132.689 32.2121C133.082 32.8749 133.618 33.3837 134.295 33.7478C134.972 34.1119 135.808 34.2893 136.806 34.2893C137.726 34.2893 138.519 34.1259 139.196 33.7945C139.873 33.4631 140.429 32.987 140.863 32.3568C141.297 31.7267 141.619 30.9705 141.829 30.0743C142.039 29.1828 142.142 28.1652 142.142 27.0216Z" fill="black"/>
<path d="M166.19 8.01452C166.19 8.48129 166.171 8.85471 166.143 9.13944C166.11 9.41951 166.064 9.63889 165.998 9.79293C165.933 9.94696 165.863 10.0497 165.779 10.1057C165.699 10.1617 165.611 10.1897 165.513 10.1897C165.401 10.1897 165.275 10.1617 165.139 10.1057C165.004 10.0497 164.831 9.98897 164.631 9.92362C164.43 9.85827 164.192 9.79759 163.916 9.74158C163.641 9.68557 163.319 9.65756 162.95 9.65756C162.516 9.65756 162.143 9.72758 161.825 9.86294C161.512 9.99831 161.251 10.2177 161.041 10.5164C160.831 10.8152 160.677 11.2026 160.584 11.674C160.486 12.1501 160.439 12.7336 160.439 13.4244V15.4035H164.374C164.518 15.4035 164.654 15.4455 164.771 15.5249C164.892 15.6042 164.99 15.7396 165.074 15.9217C165.153 16.1084 165.214 16.3604 165.256 16.6825C165.298 17.0046 165.317 17.4013 165.317 17.8634C165.317 18.7503 165.237 19.3804 165.074 19.7585C164.911 20.1366 164.677 20.328 164.374 20.328H160.439V37.762C160.439 37.9207 160.392 38.0654 160.294 38.1867C160.196 38.3081 160.037 38.4061 159.813 38.4901C159.589 38.5695 159.272 38.6302 158.871 38.6722C158.469 38.7142 157.979 38.7328 157.396 38.7328C156.812 38.7328 156.327 38.7142 155.935 38.6722C155.538 38.6302 155.225 38.5741 154.992 38.4901C154.758 38.4108 154.595 38.3081 154.511 38.1867C154.422 38.0654 154.38 37.9253 154.38 37.762V20.328H151.678C151.37 20.328 151.141 20.1366 150.991 19.7585C150.837 19.3804 150.763 18.7503 150.763 17.8634C150.763 17.3967 150.781 17.0046 150.823 16.6825C150.865 16.3604 150.921 16.1084 150.991 15.9217C151.066 15.7349 151.159 15.6042 151.281 15.5249C151.402 15.4455 151.542 15.4035 151.706 15.4035H154.385V13.5925C154.385 12.1268 154.53 10.8432 154.819 9.74158C155.108 8.64 155.561 7.72045 156.182 6.98762C156.803 6.25479 157.592 5.704 158.548 5.33525C159.505 4.96649 160.635 4.77979 161.942 4.77979C162.567 4.77979 163.165 4.83113 163.73 4.93849C164.294 5.04118 164.733 5.15787 165.06 5.27456C165.382 5.39593 165.597 5.50795 165.713 5.61064C165.825 5.71333 165.919 5.86737 165.989 6.06808C166.064 6.26879 166.115 6.52552 166.148 6.84292C166.18 7.15566 166.194 7.54775 166.194 8.01452H166.19Z" fill="black"/>
<path d="M181.57 38.5834L178.96 46.2152C178.816 46.6166 178.419 46.906 177.779 47.0834C177.135 47.2607 176.192 47.3494 174.955 47.3494C174.311 47.3494 173.798 47.3214 173.41 47.2654C173.023 47.2094 172.734 47.116 172.542 46.99C172.351 46.8593 172.244 46.7006 172.229 46.5092C172.211 46.3179 172.262 46.0798 172.374 45.8091L175.25 38.5881C175.039 38.4901 174.853 38.3407 174.68 38.14C174.512 37.9393 174.386 37.7246 174.307 37.5005L166.894 17.7C166.684 17.1352 166.582 16.7058 166.582 16.4071C166.582 16.1083 166.68 15.8749 166.871 15.7069C167.062 15.5389 167.389 15.4222 167.846 15.3568C168.304 15.2915 168.911 15.2588 169.672 15.2588C170.362 15.2588 170.913 15.2728 171.315 15.2961C171.716 15.3195 172.029 15.3802 172.258 15.4782C172.482 15.5762 172.65 15.7256 172.766 15.9263C172.878 16.127 172.99 16.4117 173.102 16.7851L178.172 31.1991H178.246L182.881 16.4957C182.979 16.0756 183.101 15.8002 183.255 15.6649C183.409 15.5295 183.661 15.4268 184.016 15.3615C184.37 15.2961 184.991 15.2635 185.873 15.2635C186.564 15.2635 187.143 15.2961 187.6 15.3615C188.058 15.4268 188.399 15.5482 188.613 15.7256C188.833 15.9029 188.94 16.141 188.94 16.4397C188.94 16.7385 188.875 17.0885 188.749 17.49L181.579 38.5928L181.57 38.5834Z" fill="black"/>
<path d="M45.3703 32.9355C45.3703 36.2169 44.026 39.1996 41.8649 41.3607C39.7037 43.5219 36.721 44.8615 33.4396 44.8615H11.926C6.01203 44.8615 1.06424 40.4972 0.154035 34.8259C0.051345 34.2098 0 33.5796 0 32.9355V11.9307C0 11.2632 0.0560128 10.6097 0.168038 9.97027C0.578798 7.46837 1.78307 5.22786 3.50546 3.50546C5.66662 1.33964 8.64463 0 11.926 0H28.2024C34.7606 0 40.1285 5.36789 40.1285 11.9307C40.1285 14.0545 39.5683 16.057 38.5788 17.784C38.3734 18.1481 38.1493 18.4982 37.9066 18.8343C37.5239 19.3757 37.0898 19.8845 36.623 20.3513C36.3149 20.6594 35.9929 20.9488 35.6521 21.2195C36.8611 21.4482 38.0093 21.8636 39.0642 22.4284C39.6337 22.7318 40.1751 23.0866 40.6839 23.4787C43.5266 25.6632 45.3703 29.094 45.3703 32.9355Z" fill="url(#paint0_linear_135_2676)"/>
<path d="M25.1824 28.8933H16.5098V30.8211H25.1824V28.8933Z" fill="white"/>
<path d="M24.9631 30.4478H16.7245C16.1033 30.4478 15.5996 30.9514 15.5996 31.5727V31.5773C15.5996 32.1986 16.1033 32.7023 16.7245 32.7023H24.9631C25.5844 32.7023 26.088 32.1986 26.088 31.5773V31.5727C26.088 30.9514 25.5844 30.4478 24.9631 30.4478Z" fill="white"/>
<path d="M16.5095 12.3789L25.1821 12.3789V10.4511L16.5095 10.4511V12.3789Z" fill="white"/>
<path d="M16.7288 10.8245L24.9674 10.8245C25.5886 10.8245 26.0923 10.3208 26.0923 9.69954V9.69487C26.0923 9.07359 25.5886 8.56995 24.9674 8.56995L16.7288 8.56995C16.1075 8.56995 15.6039 9.07359 15.6039 9.69487V9.69954C15.6039 10.3208 16.1075 10.8245 16.7288 10.8245Z" fill="white"/>
<path d="M24.5057 13.5225H17.182C16.303 13.5225 15.5903 14.2351 15.5903 15.1142V15.2168C15.5903 16.0959 16.303 16.8085 17.182 16.8085H24.5057C25.3848 16.8085 26.0974 16.0959 26.0974 15.2168V15.1142C26.0974 14.2351 25.3848 13.5225 24.5057 13.5225Z" fill="white"/>
<path d="M24.5057 24.4775H17.182C16.303 24.4775 15.5903 25.1902 15.5903 26.0692V26.1719C15.5903 27.051 16.303 27.7636 17.182 27.7636H24.5057C25.3848 27.7636 26.0974 27.051 26.0974 26.1719V26.0692C26.0974 25.1902 25.3848 24.4775 24.5057 24.4775Z" fill="white"/>
<path d="M24.8465 15.8469H16.8413V26.1206H24.8465V15.8469Z" fill="white"/>
<path d="M39.064 22.4284H23.9126V18.8342H37.9064C37.5237 19.3757 37.0896 19.8845 36.6228 20.3512C36.3148 20.6593 35.9927 20.9487 35.6519 21.2194C36.8609 21.4482 38.0091 21.8636 39.064 22.4284Z" fill="white"/>
<path d="M40.684 23.4786H37.2345C36.3477 23.4786 35.5495 23.0678 35.0267 22.4283C34.6253 21.9335 34.3872 21.3127 34.3872 20.6313C34.3872 19.9498 34.6253 19.329 35.0267 18.8342C35.0874 18.7595 35.1527 18.6895 35.2227 18.6195C35.7408 18.1013 36.4503 17.7839 37.2345 17.7839H38.5788C38.3734 18.148 38.1494 18.4981 37.9067 18.8342C37.5239 19.3756 37.0898 19.8844 36.623 20.3512C36.315 20.6593 35.9929 20.9487 35.6522 21.2194C36.8611 21.4481 38.0094 21.8635 39.0643 22.4283C39.6337 22.7317 40.1752 23.0865 40.684 23.4786Z" fill="white"/>
<path d="M29.953 34.9146H11.7349V36.9777H29.953V34.9146Z" fill="white"/>
<path d="M11.5669 37.0851L10.4886 37.7526C9.89114 38.126 10.1525 39.0456 10.8574 39.0456H20.1461C20.5336 39.0456 20.8463 38.7328 20.8463 38.3454V37.6779C20.8463 37.2905 20.5336 36.9778 20.1461 36.9778H11.9356C11.8049 36.9778 11.6789 37.0151 11.5669 37.0851Z" fill="white"/>
<path d="M30.1212 37.0851L31.1995 37.7526C31.797 38.126 31.5356 39.0456 30.8307 39.0456H21.542C21.1545 39.0456 20.8418 38.7328 20.8418 38.3454V37.6779C20.8418 37.2905 21.1545 36.9778 21.542 36.9778H29.7525C29.8832 36.9778 30.0092 37.0151 30.1212 37.0851Z" fill="white"/>
<path d="M26.1906 36.9824H16.5098V39.0502H26.1906V36.9824Z" fill="white"/>
</g>
<defs>
<linearGradient id="paint0_linear_135_2676" x1="22.6852" y1="44.8615" x2="22.6852" y2="0" gradientUnits="userSpaceOnUse">
<stop stop-color="#7FCEFF"/>
<stop offset="1" stop-color="#C600E0"/>
</linearGradient>
<clipPath id="clip0_135_2676">
<rect width="188.931" height="47.3494" fill="white"/>
</clipPath>
</defs>
</svg>
