<svg width="161" height="38" viewBox="0 0 161 38" fill="none" xmlns="http://www.w3.org/2000/svg">
<g clip-path="url(#clip0_526_7597)">
<path d="M66.659 23.4466C66.659 24.3382 66.528 25.1473 66.27 25.8703C66.008 26.5933 65.6507 27.2339 65.1902 27.7883C64.7297 28.3427 64.1858 28.8222 63.5466 29.223C62.9115 29.6238 62.2088 29.9535 61.4426 30.212C60.6764 30.4705 59.8586 30.6615 58.9892 30.7851C58.1198 30.9087 57.1511 30.9687 56.0832 30.9687H49.0208C48.5682 30.9687 48.1911 30.8413 47.8814 30.5903C47.5718 30.3393 47.4209 29.9273 47.4209 29.3616V7.49964C47.4209 6.93024 47.5757 6.52192 47.8814 6.27093C48.1911 6.01994 48.5682 5.89258 49.0208 5.89258H55.6942C57.3218 5.89258 58.7034 6.01994 59.8308 6.27842C60.9622 6.5369 61.911 6.92649 62.6852 7.45094C63.4593 7.97539 64.0508 8.63469 64.4597 9.43635C64.8686 10.238 65.075 11.182 65.075 12.2646C65.075 12.8715 64.9917 13.4446 64.8289 13.9803C64.6662 14.516 64.424 15.003 64.1104 15.445C63.7967 15.8833 63.4077 16.2729 62.9512 16.6063C62.4906 16.9434 61.9666 17.2132 61.3791 17.4192C62.1334 17.5503 62.8281 17.7751 63.4633 18.0972C64.0985 18.4194 64.6542 18.8352 65.1267 19.3484C65.5991 19.8579 65.9722 20.4572 66.2462 21.139C66.5201 21.8246 66.6551 22.5925 66.6551 23.4466H66.659ZM59.676 12.8865C59.676 12.3845 59.5926 11.9312 59.4298 11.5304C59.2671 11.1296 59.0209 10.7962 58.6914 10.5339C58.3619 10.268 57.9491 10.0657 57.4489 9.92334C56.9487 9.78099 56.2817 9.70981 55.448 9.70981H52.7167V16.2205H55.7339C56.5159 16.2205 57.1352 16.1343 57.6037 15.9582C58.0682 15.7859 58.4572 15.5462 58.7629 15.2427C59.0726 14.9393 59.2988 14.5834 59.4497 14.1789C59.6006 13.7705 59.676 13.3435 59.676 12.8902V12.8865ZM61.0535 23.6227C61.0535 23.042 60.9503 22.5213 60.7439 22.0643C60.5374 21.6073 60.2357 21.2214 59.8387 20.9105C59.4418 20.5996 58.9336 20.3598 58.3183 20.195C57.7029 20.0302 56.901 19.944 55.9165 19.944H52.7128V27.0765H56.6152C57.3695 27.0765 58.0007 27.0016 58.5168 26.8555C59.0289 26.7057 59.4735 26.4884 59.8507 26.1962C60.2278 25.904 60.5216 25.5444 60.732 25.1098C60.9424 24.6753 61.0496 24.1846 61.0496 23.6264L61.0535 23.6227Z" fill="white"/>
<path d="M88.0566 30.3056C88.0566 30.433 88.0209 30.5491 87.9534 30.6465C87.8859 30.7439 87.7668 30.8225 87.5921 30.89C87.4214 30.9537 87.1951 31.0024 86.9133 31.0361C86.6314 31.0698 86.2781 31.0848 85.8573 31.0848C85.4047 31.0848 85.0395 31.0698 84.7576 31.0361C84.4758 31.0024 84.2535 30.9574 84.0907 30.89C83.9279 30.8263 83.8088 30.7439 83.7413 30.6465C83.6739 30.5491 83.6381 30.4367 83.6381 30.3056V28.3089C82.6258 29.3429 81.5936 30.1183 80.5456 30.6352C79.4975 31.1522 78.4137 31.4107 77.2903 31.4107C76.0318 31.4107 74.9718 31.2159 74.1183 30.83C73.2608 30.4442 72.57 29.9123 72.046 29.2417C71.518 28.5712 71.1409 27.792 70.9146 26.9079C70.6883 26.0239 70.5771 24.9225 70.5771 23.6039V13.025C70.5771 12.8977 70.6129 12.7815 70.6883 12.6841C70.7637 12.5867 70.8987 12.5081 71.0972 12.4406C71.2957 12.377 71.5617 12.3283 71.8991 12.2945C72.2326 12.2646 72.6494 12.2458 73.1417 12.2458C73.634 12.2458 74.0667 12.2608 74.3962 12.2945C74.7257 12.3283 74.9877 12.377 75.1862 12.4406C75.3847 12.5043 75.5236 12.5867 75.607 12.6841C75.6904 12.7815 75.7301 12.8939 75.7301 13.025V22.791C75.7301 23.6975 75.7936 24.3868 75.9167 24.8663C76.0397 25.3458 76.2263 25.7541 76.4804 26.0988C76.7345 26.4397 77.056 26.7056 77.4451 26.8929C77.8341 27.0802 78.2907 27.1739 78.8107 27.1739C79.4697 27.1739 80.1287 26.9491 80.7917 26.4959C81.4547 26.0426 82.1653 25.387 82.9156 24.5179V13.0288C82.9156 12.9014 82.9513 12.7853 83.0268 12.6879C83.1022 12.5905 83.2372 12.5118 83.4357 12.4444C83.6341 12.3807 83.8962 12.332 84.2257 12.2983C84.5552 12.2683 84.972 12.2496 85.4802 12.2496C85.9883 12.2496 86.4051 12.2646 86.7346 12.2983C87.0641 12.332 87.3222 12.3807 87.5167 12.4444C87.7073 12.5081 87.8462 12.5905 87.9256 12.6879C88.009 12.7853 88.0487 12.8977 88.0487 13.0288V30.3131L88.0566 30.3056Z" fill="white"/>
<path d="M105.016 14.6282C105.016 15.0928 105.004 15.4749 104.976 15.7708C104.948 16.0667 104.909 16.299 104.853 16.4676C104.797 16.6361 104.726 16.7523 104.639 16.8159C104.547 16.8796 104.436 16.9133 104.301 16.9133C104.19 16.9133 104.067 16.8909 103.932 16.8459C103.793 16.801 103.642 16.7523 103.471 16.6998C103.301 16.6474 103.11 16.5987 102.908 16.5537C102.701 16.5088 102.475 16.4863 102.229 16.4863C101.943 16.4863 101.653 16.5425 101.367 16.6511C101.082 16.7598 100.784 16.9321 100.474 17.1643C100.165 17.3966 99.843 17.7075 99.5095 18.0933C99.1721 18.4829 98.8148 18.9587 98.4297 19.5281V30.3017C98.4297 30.4291 98.39 30.5452 98.3066 30.6426C98.2232 30.74 98.0843 30.8187 97.8858 30.8861C97.6873 30.9498 97.4253 30.9985 97.0958 31.0322C96.7663 31.0659 96.3495 31.0809 95.8413 31.0809C95.3332 31.0809 94.9163 31.0659 94.5868 31.0322C94.2573 30.9985 93.9953 30.9536 93.7968 30.8861C93.5983 30.8224 93.4594 30.74 93.376 30.6426C93.2926 30.5452 93.2529 30.4329 93.2529 30.3017V13.0174C93.2529 12.8901 93.2887 12.7739 93.3562 12.6765C93.4236 12.5792 93.5467 12.5005 93.7253 12.4331C93.904 12.3656 94.1343 12.3207 94.4121 12.287C94.694 12.257 95.0434 12.2383 95.4681 12.2383C95.8929 12.2383 96.2701 12.2532 96.5559 12.287C96.8417 12.3207 97.064 12.3694 97.2228 12.4331C97.3816 12.4967 97.4928 12.5792 97.5603 12.6765C97.6278 12.7739 97.6635 12.8863 97.6635 13.0174V15.1677C98.1438 14.5234 98.5924 13.9877 99.0172 13.5681C99.442 13.1486 99.8469 12.8152 100.228 12.5717C100.613 12.3282 100.994 12.1558 101.379 12.0584C101.76 11.9611 102.146 11.9124 102.531 11.9124C102.709 11.9124 102.9 11.9236 103.106 11.9423C103.313 11.9611 103.523 11.9948 103.741 12.0397C103.96 12.0847 104.15 12.1371 104.317 12.1933C104.48 12.2495 104.599 12.3132 104.674 12.3769C104.75 12.4405 104.805 12.5117 104.837 12.5904C104.873 12.6691 104.901 12.7739 104.928 12.9088C104.956 13.0437 104.976 13.2497 104.988 13.5194C105 13.7891 105.008 14.16 105.008 14.6245L105.016 14.6282Z" fill="white"/>
<path d="M126.211 21.491C126.211 22.9632 126.005 24.3081 125.596 25.5218C125.187 26.7355 124.564 27.7844 123.726 28.661C122.892 29.5413 121.844 30.2193 120.586 30.6951C119.327 31.1746 117.855 31.4106 116.171 31.4106C114.488 31.4106 113.126 31.1971 111.92 30.77C110.713 30.343 109.716 29.7249 108.922 28.9082C108.128 28.0953 107.541 27.0951 107.156 25.9039C106.771 24.7164 106.58 23.3603 106.58 21.8357C106.58 20.311 106.79 19.0149 107.207 17.7937C107.624 16.5724 108.251 15.5273 109.085 14.6545C109.919 13.7816 110.963 13.1073 112.217 12.6279C113.472 12.1484 114.937 11.9124 116.624 11.9124C118.311 11.9124 119.689 12.1221 120.896 12.5417C122.098 12.9612 123.095 13.5793 123.885 14.3922C124.671 15.2051 125.258 16.2091 125.64 17.3966C126.025 18.5841 126.215 19.9476 126.215 21.4873L126.211 21.491ZM120.892 21.6858C120.892 20.8317 120.82 20.0488 120.677 19.3333C120.534 18.6178 120.288 17.9922 119.947 17.464C119.605 16.9358 119.149 16.52 118.581 16.2241C118.013 15.9281 117.299 15.7783 116.433 15.7783C115.667 15.7783 114.996 15.9094 114.421 16.1754C113.845 16.4413 113.373 16.8272 113.003 17.3366C112.634 17.8461 112.356 18.4605 112.174 19.176C111.991 19.8915 111.896 20.7118 111.896 21.6259C111.896 22.48 111.971 23.2629 112.122 23.9821C112.273 24.6976 112.515 25.3232 112.853 25.8514C113.186 26.3834 113.643 26.7917 114.218 27.0839C114.794 27.3761 115.504 27.5184 116.354 27.5184C117.136 27.5184 117.811 27.3873 118.387 27.1213C118.962 26.8554 119.435 26.4733 119.804 25.9676C120.173 25.4618 120.447 24.855 120.626 24.1357C120.804 23.4202 120.892 22.6036 120.892 21.6858Z" fill="white"/>
<path d="M141.345 6.43195C141.345 6.80656 141.329 7.10625 141.305 7.33475C141.278 7.55952 141.238 7.73558 141.182 7.8592C141.127 7.98282 141.067 8.06524 140.996 8.11019C140.928 8.15514 140.853 8.17762 140.769 8.17762C140.674 8.17762 140.567 8.15514 140.452 8.11019C140.337 8.06524 140.19 8.01654 140.019 7.96409C139.848 7.91165 139.646 7.86295 139.412 7.818C139.178 7.77304 138.904 7.75057 138.59 7.75057C138.221 7.75057 137.903 7.80676 137.633 7.91539C137.367 8.02403 137.145 8.20009 136.966 8.43984C136.788 8.67959 136.657 8.99051 136.577 9.36886C136.494 9.75096 136.454 10.2192 136.454 10.7736V12.362H139.801C139.924 12.362 140.039 12.3957 140.138 12.4594C140.242 12.523 140.325 12.6317 140.396 12.7778C140.464 12.9276 140.515 13.1299 140.551 13.3884C140.587 13.6469 140.603 13.9653 140.603 14.3361C140.603 15.0479 140.535 15.5536 140.396 15.857C140.257 16.1605 140.059 16.3141 139.801 16.3141H136.454V30.3056C136.454 30.4329 136.415 30.5491 136.331 30.6465C136.248 30.7439 136.113 30.8225 135.922 30.89C135.732 30.9536 135.462 31.0023 135.12 31.0361C134.779 31.0698 134.362 31.0848 133.866 31.0848C133.37 31.0848 132.957 31.0698 132.623 31.0361C132.286 31.0023 132.02 30.9574 131.821 30.89C131.623 30.8263 131.484 30.7439 131.412 30.6465C131.337 30.5491 131.301 30.4367 131.301 30.3056V16.3141H129.003C128.741 16.3141 128.546 16.1605 128.419 15.857C128.288 15.5536 128.225 15.0479 128.225 14.3361C128.225 13.9615 128.24 13.6469 128.276 13.3884C128.312 13.1299 128.36 12.9276 128.419 12.7778C128.483 12.6279 128.562 12.523 128.665 12.4594C128.768 12.3957 128.888 12.362 129.027 12.362H131.305V10.9085C131.305 9.73223 131.428 8.70206 131.674 7.818C131.921 6.93393 132.306 6.19595 132.834 5.60782C133.362 5.01969 134.033 4.57766 134.846 4.28172C135.66 3.98578 136.621 3.83594 137.733 3.83594C138.264 3.83594 138.773 3.87714 139.253 3.9633C139.733 4.04572 140.107 4.13937 140.384 4.23302C140.658 4.33042 140.841 4.42032 140.94 4.50274C141.035 4.58515 141.115 4.70877 141.174 4.86985C141.238 5.03093 141.282 5.23696 141.309 5.49169C141.337 5.74268 141.349 6.05735 141.349 6.43195H141.345Z" fill="white"/>
<path d="M154.426 30.9649L152.207 37.0897C152.084 37.4119 151.746 37.6441 151.202 37.7865C150.655 37.9288 149.853 38 148.801 38C148.253 38 147.816 37.9775 147.487 37.9326C147.157 37.8876 146.911 37.8127 146.748 37.7115C146.586 37.6067 146.494 37.4793 146.482 37.3257C146.466 37.1721 146.51 36.9811 146.605 36.7638L149.051 30.9686C148.872 30.89 148.713 30.7701 148.566 30.609C148.424 30.4479 148.316 30.2756 148.249 30.0958L141.945 14.205C141.766 13.7518 141.679 13.4071 141.679 13.1674C141.679 12.9276 141.762 12.7403 141.925 12.6055C142.088 12.4706 142.366 12.377 142.755 12.3245C143.144 12.2721 143.66 12.2458 144.307 12.2458C144.894 12.2458 145.363 12.2571 145.704 12.2758C146.046 12.2945 146.312 12.3432 146.506 12.4219C146.697 12.5006 146.84 12.6205 146.939 12.7815C147.034 12.9426 147.129 13.1711 147.225 13.4708L151.536 25.0386H151.599L155.542 13.2386C155.625 12.9014 155.728 12.6804 155.859 12.5718C155.99 12.4631 156.205 12.3807 156.506 12.3283C156.808 12.2758 157.336 12.2496 158.086 12.2496C158.674 12.2496 159.166 12.2758 159.555 12.3283C159.944 12.3807 160.234 12.4781 160.417 12.6205C160.603 12.7628 160.695 12.9539 160.695 13.1936C160.695 13.4334 160.639 13.7143 160.532 14.0365L154.434 30.9724L154.426 30.9649Z" fill="white"/>
<path d="M38.5874 26.4322C38.5874 29.0657 37.4441 31.4594 35.606 33.1938C33.768 34.9282 31.2312 36.0033 28.4404 36.0033H10.1431C5.11323 36.0033 0.905138 32.5008 0.131007 27.9493C0.0436689 27.4548 0 26.9491 0 26.4322V9.57492C0 9.03923 0.0476388 8.51479 0.142916 8.00158C0.492268 5.99369 1.5165 4.19558 2.9814 2.81329C4.81946 1.07512 7.35226 0 10.1431 0H23.9861C29.5639 0 34.1292 4.30796 34.1292 9.57492C34.1292 11.2794 33.6529 12.8864 32.8112 14.2725C32.6366 14.5647 32.446 14.8456 32.2396 15.1153C31.914 15.5499 31.5448 15.9582 31.1478 16.3328C30.8858 16.58 30.6119 16.8123 30.3221 17.0296C31.3503 17.2131 32.3269 17.5465 33.2241 17.9998C33.7084 18.2433 34.1689 18.528 34.6017 18.8427C37.0193 20.5958 38.5874 23.3492 38.5874 26.4322Z" fill="url(#paint0_linear_526_7597)"/>
<path d="M21.4181 23.188H14.042V24.7351H21.4181V23.188Z" fill="white"/>
<path d="M21.2312 24.4353H14.2243C13.6959 24.4353 13.2676 24.8395 13.2676 25.3381V25.3418C13.2676 25.8405 13.6959 26.2446 14.2243 26.2446H21.2312C21.7596 26.2446 22.1879 25.8405 22.1879 25.3418V25.3381C22.1879 24.8395 21.7596 24.4353 21.2312 24.4353Z" fill="white"/>
<path d="M14.0419 9.93457H21.418V8.38745H14.0419V9.93457Z" fill="white"/>
<path d="M14.2278 8.68701L21.2347 8.68701C21.7631 8.68701 22.1914 8.28281 22.1914 7.78421V7.78047C22.1914 7.28186 21.7631 6.87767 21.2347 6.87767L14.2278 6.87767C13.6994 6.87767 13.271 7.28186 13.271 7.78047V7.78421C13.271 8.28281 13.6994 8.68701 14.2278 8.68701Z" fill="white"/>
<path d="M20.8423 10.8523H14.6135C13.8659 10.8523 13.2598 11.4242 13.2598 12.1297V12.2121C13.2598 12.9176 13.8659 13.4895 14.6135 13.4895H20.8423C21.5899 13.4895 22.196 12.9176 22.196 12.2121V12.1297C22.196 11.4242 21.5899 10.8523 20.8423 10.8523Z" fill="white"/>
<path d="M20.8423 19.6443H14.6135C13.8659 19.6443 13.2598 20.2162 13.2598 20.9217V21.0041C13.2598 21.7096 13.8659 22.2815 14.6135 22.2815H20.8423C21.5899 22.2815 22.196 21.7096 22.196 21.0041V20.9217C22.196 20.2162 21.5899 19.6443 20.8423 19.6443Z" fill="white"/>
<path d="M21.1316 12.7178H14.3232V20.9628H21.1316V12.7178Z" fill="white"/>
<path d="M33.2242 17.9997H20.3379V15.1152H32.2397C31.9141 15.5498 31.5449 15.9581 31.1479 16.3327C30.8859 16.5799 30.612 16.8122 30.3222 17.0295C31.3504 17.213 32.327 17.5464 33.2242 17.9997Z" fill="white"/>
<path d="M34.6015 18.8427H31.6677C30.9135 18.8427 30.2346 18.513 29.79 17.9998C29.4486 17.6027 29.2461 17.1045 29.2461 16.5576C29.2461 16.0106 29.4486 15.5124 29.79 15.1153C29.8416 15.0554 29.8972 14.9992 29.9567 14.943C30.3974 14.5272 31.0008 14.2725 31.6677 14.2725H32.8111C32.6364 14.5647 32.4458 14.8456 32.2394 15.1153C31.9139 15.5499 31.5447 15.9582 31.1477 16.3328C30.8857 16.58 30.6117 16.8123 30.3219 17.0296C31.3501 17.2131 32.3267 17.5465 33.2239 17.9998C33.7083 18.2433 34.1688 18.528 34.6015 18.8427Z" fill="white"/>
<path d="M25.474 28.0205H9.97949V29.6763H25.474V28.0205Z" fill="white"/>
<path d="M9.837 29.7624L8.91995 30.2981C8.41181 30.5978 8.63412 31.3358 9.23358 31.3358H17.1337C17.4632 31.3358 17.7292 31.0848 17.7292 30.7739V30.2382C17.7292 29.9273 17.4632 29.6763 17.1337 29.6763H10.1506C10.0395 29.6763 9.93228 29.7062 9.837 29.7624Z" fill="white"/>
<path d="M25.6177 29.7624L26.5348 30.2981C27.0429 30.5978 26.8206 31.3358 26.2212 31.3358H18.3211C17.9916 31.3358 17.7256 31.0848 17.7256 30.7739V30.2382C17.7256 29.9273 17.9916 29.6763 18.3211 29.6763H25.3041C25.4153 29.6763 25.5225 29.7062 25.6177 29.7624Z" fill="white"/>
<path d="M22.2746 29.6799H14.041V31.3394H22.2746V29.6799Z" fill="white"/>
</g>
<defs>
<linearGradient id="paint0_linear_526_7597" x1="19.2937" y1="36.0033" x2="19.2937" y2="0" gradientUnits="userSpaceOnUse">
<stop stop-color="#7FCEFF"/>
<stop offset="1" stop-color="#C600E0"/>
</linearGradient>
<clipPath id="clip0_526_7597">
<rect width="160.686" height="38" fill="white"/>
</clipPath>
</defs>
</svg>
